<svg version="1.1" xmlns="http://www.w3.org/2000/svg" style="display: block;" viewBox="0 0 2048 2048" width="1024" height="1024" preserveAspectRatio="none">
<defs>
	<linearGradient id="Gradient1" gradientUnits="userSpaceOnUse" x1="56.6897" y1="2046.85" x2="57.103" y2="2039.06">
		<stop class="stop0" offset="0" stop-opacity="0.847059" stop-color="rgb(152,151,152)"/>
		<stop class="stop1" offset="1" stop-opacity="0.87451" stop-color="rgb(171,169,170)"/>
	</linearGradient>
	<linearGradient id="Gradient2" gradientUnits="userSpaceOnUse" x1="246.788" y1="2010.89" x2="240.761" y2="2011.09">
		<stop class="stop0" offset="0" stop-opacity="0.964706" stop-color="rgb(251,252,250)"/>
		<stop class="stop1" offset="1" stop-opacity="1" stop-color="rgb(252,251,252)"/>
	</linearGradient>
	<linearGradient id="Gradient3" gradientUnits="userSpaceOnUse" x1="159.628" y1="2054.57" x2="165" y2="2006.67">
		<stop class="stop0" offset="0" stop-opacity="0.882353" stop-color="rgb(175,174,174)"/>
		<stop class="stop1" offset="1" stop-opacity="1" stop-color="rgb(220,220,220)"/>
	</linearGradient>
</defs>
<path transform="translate(0,0)" fill="rgb(255,255,255)" d="M 0 0 L 2048 0 L 2048 2048 L 523.126 2048 C 525.539 2047.65 525.463 2047.74 527.6 2046.61 C 521.387 2042.18 348.385 2046.53 330.653 2044.67 C 326.59 2044.25 281.68 2026.52 281.826 2026.66 C 282.138 2023.7 281.909 2022.9 283.407 2020.57 C 287.033 2020.06 288.251 2020.97 291.445 2022.39 C 286.648 2016.45 284.956 2019.38 285.303 2010.04 L 283.249 2007.86 C 280.36 2013.41 285.901 2027.95 272.1 2026.71 C 268.561 2024.22 269.552 2025.76 268.033 2022.46 L 268.78 2021.33 L 272.083 2022.23 L 273.055 2021.53 C 266.712 2015.29 268.856 2019.4 266.433 2010.06 L 265.735 2010.36 C 265.058 2015.12 264.812 2016.87 260.733 2019.71 C 256.453 2020.21 250.701 2019.07 249.862 2014.14 C 252.411 2007.37 259.117 2008.02 260.784 2004.43 C 259.68 2002.83 259.747 2003.27 257.726 2002.22 C 254.541 2002.93 251.294 2007.31 249.088 2009.92 C 248.909 2012.64 249.052 2012.25 248.334 2014.83 L 246.266 2014.61 C 243.257 2009.79 247.154 2002.47 241.916 1999.78 C 230.027 2003.84 240.805 2011.73 237.649 2017.85 C 233.804 2019.26 231.087 2018.43 226.91 2017.86 C 224.542 2015.01 232.12 2012.79 231.359 2006.44 L 230.346 2006.33 L 225.303 2013.87 C 216.936 2019.57 212.32 2019.51 202.507 2020.19 L 214.593 2000.88 C 210.138 2000.79 204.032 2001.48 200.866 1999.46 L 201.112 1996.28 L 200.021 1995.73 L 198.949 1996.63 C 198.79 2000.63 198.316 1998.82 200.48 2002.24 C 203.535 2004 204.971 2003.68 208.501 2003.69 L 209.783 2003.68 C 209.061 2005.99 204.564 2012.82 203.043 2015.75 L 202.138 2017.52 C 202.145 2012.97 202.442 2009.97 201.12 2005.59 C 197.18 2002.13 198.895 2006.71 193.755 2004.8 L 193.071 2002.49 C 195.055 1999.01 197.041 1997.2 194.436 1993.8 C 192.273 1996.05 190.69 2003.73 190.834 2006.79 C 193.365 2008.51 198.089 2008.12 201.429 2008.18 C 199.179 2013.89 197.03 2022.62 192.632 2025.17 L 193.258 2027.12 C 192.53 2025.05 191.829 2022.97 191.155 2020.88 C 187.99 2019.32 173.778 2019.95 169.525 2019.99 C 171.773 2014.7 181.459 1993.22 181.115 1989.45 L 179.904 1989.23 C 177.431 1994.09 173.049 2006.62 170.904 2012.24 L 169.968 2012.64 C 168.689 2012.18 167.645 2011.84 166.284 2011.78 C 156.225 2011.37 161.805 2007.92 156.405 2004.93 C 155.382 2004.36 152.153 2006.06 148.927 2004.07 C 149.158 2000.76 149.562 2001.62 148.47 1998.87 L 146 1999.69 C 145.004 2003.03 145.502 2003.28 143.311 2005.43 C 140.975 2003.52 141.509 2003.86 139.679 2001.3 C 137.312 2001.57 138.392 2001.11 136.507 2002.84 L 135.742 2005.36 L 132.163 2005.73 C 134.585 2002.85 134.17 2004.39 134.09 2001.16 L 132.638 2000.22 C 130.056 2000.85 131.044 2000.11 129.406 2002.14 L 130.422 2004.47 L 130.035 2005.37 C 127.26 2004.83 127.935 2004.81 125.151 2004.92 C 124.981 2007.96 125.458 2006.97 123.974 2009.27 L 122.83 2008.51 C 121.911 2005.67 122.711 2006.92 119.686 2005.17 L 116.627 2005.31 C 115.53 2007.13 115.412 2007.35 114.698 2009.35 C 104.753 2000.06 96.5801 2008.59 85.3592 2006.12 C 85.0201 2001.83 85.7096 2001.52 83.5821 1998.63 C 80.9086 2000.34 80.1742 2001.62 78.2529 2004.09 C 73.8459 2005.31 71.348 2004.39 69.5955 2006.66 L 69.431 2008.09 L 68.1044 2007.38 C 61.9786 2004.14 61.7899 2003.64 55.0194 2004.75 C 52.8536 2006.52 53.5713 2005.38 52.5254 2008 L 51.4392 2006.9 L 51.2866 2005.85 C 50.643 2001.68 51.1052 2002.5 48.5499 2000.65 C 44.0428 2001.99 46.0345 2005.46 41.1036 2007.51 C 37.678 2006.12 39.2565 2007.1 36.6123 2003.82 C 35.5091 2001.49 35.9779 2002.49 33.3919 2000.69 C 22.7178 2006.72 15.7244 2004.61 3.50206 2004.51 C 2.51293 1994.23 3.6724 1981.43 3.01752 1970.88 C 2.70924 1965.91 2.89768 1966.73 0 1964.3 L 0 0 z M 388.475 2018.39 C 389.33 2013.49 390.422 2010.27 386.627 2006.42 L 387.101 2017.79 L 388.475 2018.39 z"/>
<path transform="translate(0,0)" fill="rgb(0,0,0)" d="M 1006.13 363.433 C 1014.86 363.091 1023.59 362.996 1032.31 363.149 C 1141.2 364.32 1245 409.39 1320.19 488.146 C 1388.49 558.547 1428.8 654.539 1435.34 751.86 C 1438.33 796.395 1436.56 840.277 1435.84 884.768 C 1437.79 883.732 1440.29 882.391 1442.33 881.578 C 1453.35 877.117 1465.68 877.163 1476.66 881.707 C 1490.11 887.339 1499.78 898.628 1505.09 911.969 C 1508.39 920.222 1509.94 929.071 1509.65 937.954 C 1508.92 955.214 1501.28 989.407 1497.89 1008.31 L 1485.99 1075.02 C 1476.68 1127.07 1475.95 1161.77 1422.03 1183.35 C 1422.46 1295.77 1425.92 1354.51 1362.38 1451.55 C 1339.9 1485.45 1314.62 1517.4 1286.79 1547.07 C 1258.17 1577.28 1213.24 1617.36 1176.15 1636.02 C 1141.3 1653.55 1083.42 1663.03 1043.75 1664.13 C 990.619 1666.44 920.066 1659.57 872.024 1636.18 C 837.509 1619.37 799.906 1584.07 772.541 1557.35 C 748.702 1534.06 726.725 1507.35 707.015 1480.53 C 672.906 1434.11 643.869 1385.6 634.011 1327.94 C 625.787 1279.83 626.986 1231.97 627.037 1183.41 C 625.306 1182.77 623.583 1182.12 621.867 1181.45 C 575.176 1163.08 571.48 1125.19 563.787 1080.73 C 556.809 1034.6 544.087 987.729 539.607 941.421 C 535.467 898.635 569.77 866.006 612.919 883.844 C 613.615 844.577 610.785 805.757 612.504 765.946 C 621.941 547.298 784.957 374.442 1006.13 363.433 z"/>
<path transform="translate(0,0)" fill="rgb(255,255,255)" d="M 1016.58 396.445 C 1116.13 392.666 1219.21 435.078 1289.08 505.446 C 1349.08 565.771 1387.57 644.153 1398.63 728.513 C 1403.1 762.333 1403.05 789.836 1402.91 823.559 C 1361.54 815.663 1321.77 803.502 1280.57 796.699 C 1222.39 787.091 1149.92 790.959 1095.56 814.858 C 1082.53 820.591 1071.3 828.901 1059.87 837.212 L 1031.16 836.795 C 1016.91 836.764 1002.66 836.859 988.412 837.08 C 951.735 813.806 948.723 809.195 902.961 798.98 C 811.772 778.626 733.321 804.196 645.333 824.698 C 645.69 797.572 645.826 773.578 648.338 746.509 C 656.138 662.466 689.382 581.435 746.902 518.948 C 819.841 439.712 909.58 400.731 1016.58 396.445 z"/>
<path transform="translate(0,0)" fill="rgb(255,255,255)" d="M 647.133 872.832 C 674.443 878.384 669.515 896.244 672.459 918.412 C 679.306 969.971 695.756 1023.17 751.498 1039.29 C 804.139 1054.51 871.332 1055.11 921.7 1031.58 C 967.032 1009.8 981.958 956.927 994.472 912.534 C 1002.04 885.127 1031.21 874.032 1049.32 899.999 C 1054.58 907.543 1058.78 928.237 1061.7 938.297 C 1064.8 948.925 1068.52 959.364 1072.82 969.563 C 1086.21 1000.46 1104.74 1023.26 1137.06 1035.8 C 1185.34 1054.53 1261.38 1054.83 1308.86 1034.91 C 1357.3 1014.97 1369.02 965.234 1376.34 918.458 C 1380.47 892.043 1373.85 883.805 1401.55 872.19 C 1401.48 895.415 1397.98 932.159 1395.26 955.241 C 1384.32 1048.07 1363.11 1167.21 1299.78 1239.28 C 1290.83 1249.5 1280.43 1258.36 1268.91 1265.56 C 1265.77 1249.99 1262.91 1233.58 1256.15 1219.29 C 1234.55 1173.59 1198.72 1156.05 1150.84 1147.38 C 1129.35 1143.49 1106.26 1140.22 1086.09 1132.64 C 1109.16 1121.32 1141.32 1122.19 1143.49 1087.69 C 1144.4 1073.21 1143.48 1047.07 1124.94 1044.57 C 1111.67 1042.78 1105.58 1054.21 1108.49 1065.8 C 1109.86 1071.92 1110.27 1080.03 1110.43 1086.27 C 1098.82 1094.69 1085.83 1097.3 1072.38 1102.79 C 1054.38 1110.13 1032.86 1127.41 1012.54 1119.9 C 1001.83 1114.68 987.845 1108.65 977.557 1103.13 C 964.146 1095.93 933.817 1094.63 939.371 1075.12 C 940.825 1070.02 942.15 1060.52 941.595 1055.94 C 940.82 1049.53 929.21 1040.84 922.546 1043.52 C 903.932 1050.26 902.133 1082.96 907.428 1099.06 C 915.103 1121.1 943.438 1123.76 962.151 1132.01 L 963.384 1132.57 C 923.331 1147.2 873.753 1144.78 836.574 1169.1 C 798.241 1194.17 789.442 1224.48 780.246 1265.48 C 677.886 1199.45 650.876 983.502 647.133 872.832 z"/>
<path transform="translate(0,0)" fill="rgb(255,255,255)" d="M 808.84 824.417 C 845.661 820.831 915.699 826.902 946.467 849.224 C 983.812 876.318 951.395 956.175 930.008 985.258 C 915.197 1005.4 880.774 1013.98 856.241 1016.47 C 826.518 1022.51 758.939 1016.02 735.881 995.2 C 708.459 970.446 688.803 881.016 715.977 850.466 C 734.272 829.898 782.199 826.561 808.84 824.417 z"/>
<path transform="translate(0,0)" fill="rgb(255,255,255)" d="M 1200.66 824.417 C 1235.53 820.654 1300.73 826.572 1328.82 846.795 C 1354.05 864.968 1345 909.789 1341.04 934.667 C 1330.39 1001.59 1295.31 1013.97 1233.42 1017.89 C 1200.56 1018.49 1156.45 1016.27 1128.79 994.756 C 1103.12 973.37 1090.67 927.172 1085.84 895.653 C 1076.32 833.437 1157.15 827.632 1200.66 824.417 z"/>
<path transform="translate(0,0)" fill="rgb(255,255,255)" d="M 870.071 1236.64 C 872.496 1237.1 892.51 1258.18 896.78 1261.9 C 935.479 1295.59 993.398 1310.37 1043.74 1305.6 C 1100.15 1300.26 1141.15 1278.63 1177.32 1235.96 C 1220.06 1262.51 1208.84 1327.53 1184.57 1363.24 C 1179.22 1371.12 1173.1 1376.85 1166.04 1383.18 C 1151.47 1394 1123.24 1408.74 1105.55 1399 C 1085.56 1387.99 1082.48 1356.21 1076.46 1336.05 C 1043.42 1335.9 1005.29 1335.28 972.548 1336.61 C 966.32 1356.7 965.008 1385.37 946.421 1396.98 C 938.306 1402.33 928.432 1403.34 918.963 1401.12 C 864.22 1388.28 835.014 1325.69 845.456 1273.31 C 848.783 1256.62 855.973 1245.85 870.071 1236.64 z"/>
<path transform="translate(0,0)" fill="rgb(255,255,255)" d="M 1025.11 1194.91 C 1027.65 1196.23 1033.91 1202.95 1038 1204.67 C 1068.65 1217.55 1107.97 1223.64 1140.82 1226.18 C 1110.85 1259.47 1068.72 1270.62 1025.56 1272.72 C 980.716 1271.76 939.581 1259.04 908.003 1226.11 C 941.552 1225.51 998.563 1214.99 1025.11 1194.91 z"/>
<path transform="translate(0,0)" fill="rgb(255,255,255)" d="M 1453.99 912.065 C 1475.59 911.407 1477.61 932.559 1474.64 949.063 C 1464.48 1005.54 1454.27 1062.18 1443.01 1118.45 C 1441.76 1124.71 1438.76 1130.28 1435.31 1135.56 C 1430.59 1140.59 1428.16 1142.17 1422.55 1145.82 C 1419.13 1087.16 1430.08 1020.72 1432.83 961.797 C 1433.75 942.142 1434.51 922.086 1453.99 912.065 z"/>
<path transform="translate(0,0)" fill="rgb(255,255,255)" d="M 588.131 912.006 C 601.867 912.35 609.168 920.949 612.162 934.285 C 615.351 949.425 616.233 965.344 617.534 980.774 C 622.188 1035.95 627.026 1090.68 626.514 1146.08 C 623.074 1144.01 620.394 1141.8 617.26 1139.34 C 614.666 1136.57 612.4 1133.52 610.507 1130.23 C 608.151 1126.17 606.379 1121.8 605.246 1117.25 C 598.068 1088.59 593.633 1050.56 587.536 1020.75 C 583.511 995.234 577.325 969.986 573.776 944.422 C 571.593 928.702 573.989 919.614 588.131 912.006 z"/>
<path transform="translate(0,0)" fill="rgb(255,255,255)" d="M 404.999 2003.99 L 408.56 2004.06 C 422.865 2004.3 421.913 2008.59 421.044 2020.63 C 416.531 2020.99 417.238 2021.69 414.573 2019.61 C 412.531 2010.59 413.465 2008.57 404.999 2003.99 z"/>
<path transform="translate(0,0)" fill="rgb(225,224,225)" d="M 310.51 2005.47 C 313.798 2006.11 314.176 2005.98 317.086 2007.78 C 318.818 2010.67 318.22 2012.37 317.85 2015.76 C 315.191 2016.28 314.205 2016.78 311.702 2015.89 C 309.758 2012.64 310.496 2009.77 310.51 2005.47 z"/>
<path transform="translate(0,0)" fill="rgb(225,224,225)" fill-opacity="0.843137" d="M 386.627 2006.42 C 390.422 2010.27 389.33 2013.49 388.475 2018.39 L 387.101 2017.79 L 386.627 2006.42 z"/>
<path transform="translate(0,0)" fill="url(#Gradient3)" d="M 0 1964.3 C 2.89768 1966.73 2.70924 1965.91 3.01752 1970.88 C 3.6724 1981.43 2.51293 1994.23 3.50206 2004.51 C 15.7244 2004.61 22.7178 2006.72 33.3919 2000.69 C 35.9779 2002.49 35.5091 2001.49 36.6123 2003.82 L 33.1278 2003.12 C 29.8455 2007.41 31.4156 2013.97 32.0021 2019.53 L 33.0612 2020.28 C 34.9118 2017.84 34.5735 2017.67 34.6745 2014.49 L 36.1518 2013.18 C 37.8885 2016.05 39.0063 2019.05 41.5352 2020.29 C 43.8122 2017.04 44.3746 2014.57 45.6825 2010.77 L 46.537 2010.81 L 46.8289 2011.98 C 47.6143 2015.02 47.6748 2016.5 49.8715 2018.72 C 53.7501 2019.54 58.2224 2020.13 62.1692 2019.89 L 65.4003 2019.08 C 67.9443 2016.4 67.2935 2017.93 67.6422 2014.44 C 65.785 2010.4 64.2465 2009.73 60.581 2006.89 C 57.256 2006.34 55.898 2007.04 52.5254 2008 C 53.5713 2005.38 52.8536 2006.52 55.0194 2004.75 C 61.7899 2003.64 61.9786 2004.14 68.1044 2007.38 L 69.431 2008.09 L 69.5955 2006.66 C 71.348 2004.39 73.8459 2005.31 78.2529 2004.09 C 80.1742 2001.62 80.9086 2000.34 83.5821 1998.63 C 85.7096 2001.52 85.0201 2001.83 85.3592 2006.12 C 96.5801 2008.59 104.753 2000.06 114.698 2009.35 C 115.412 2007.35 115.53 2007.13 116.627 2005.31 L 119.686 2005.17 L 119.045 2007.99 L 119.892 2008.96 L 122.065 2019.51 L 123.576 2020.11 C 124.733 2018.72 125.491 2017.8 126.752 2016.5 L 129.089 2019.37 C 129.589 2016.81 129.778 2015.41 130.013 2012.81 C 130.327 2015.23 130.366 2018.5 132.471 2019.83 C 134.625 2014.22 132.537 2010.92 135.742 2005.36 L 136.507 2002.84 C 138.022 2004.12 139.508 2005.43 140.964 2006.78 C 139.686 2007.53 138.562 2008.45 137.385 2009.34 C 138.224 2011.03 137.596 2010.25 139.498 2011.5 C 138.831 2013.59 138.178 2015.69 137.54 2017.8 L 138.367 2019.34 C 143.415 2020.35 142.819 2018.89 147.316 2020.16 C 148.358 2012.38 149.837 2008.58 146.045 2001.93 L 147.89 2001.45 L 146 1999.69 L 148.47 1998.87 C 149.562 2001.62 149.158 2000.76 148.927 2004.07 C 152.153 2006.06 155.382 2004.36 156.405 2004.93 C 161.805 2007.92 156.225 2011.37 166.284 2011.78 C 167.645 2011.84 168.689 2012.18 169.968 2012.64 L 170.904 2012.24 C 173.049 2006.62 177.431 1994.09 179.904 1989.23 L 181.115 1989.45 C 181.459 1993.22 171.773 2014.7 169.525 2019.99 C 173.778 2019.95 187.99 2019.32 191.155 2020.88 C 191.829 2022.97 192.53 2025.05 193.258 2027.12 L 192.632 2025.17 C 197.03 2022.62 199.179 2013.89 201.429 2008.18 C 198.089 2008.12 193.365 2008.51 190.834 2006.79 C 190.69 2003.73 192.273 1996.05 194.436 1993.8 C 197.041 1997.2 195.055 1999.01 193.071 2002.49 L 193.755 2004.8 C 198.895 2006.71 197.18 2002.13 201.12 2005.59 C 202.442 2009.97 202.145 2012.97 202.138 2017.52 L 203.043 2015.75 C 204.564 2012.82 209.061 2005.99 209.783 2003.68 L 208.501 2003.69 C 204.971 2003.68 203.535 2004 200.48 2002.24 C 198.316 1998.82 198.79 2000.63 198.949 1996.63 L 200.021 1995.73 L 201.112 1996.28 L 200.866 1999.46 C 204.032 2001.48 210.138 2000.79 214.593 2000.88 L 202.507 2020.19 C 212.32 2019.51 216.936 2019.57 225.303 2013.87 L 230.346 2006.33 L 231.359 2006.44 C 232.12 2012.79 224.542 2015.01 226.91 2017.86 C 231.087 2018.43 233.804 2019.26 237.649 2017.85 C 240.805 2011.73 230.027 2003.84 241.916 1999.78 C 247.154 2002.47 243.257 2009.79 246.266 2014.61 L 248.334 2014.83 C 249.052 2012.25 248.909 2012.64 249.088 2009.92 C 251.294 2007.31 254.541 2002.93 257.726 2002.22 C 259.747 2003.27 259.68 2002.83 260.784 2004.43 C 259.117 2008.02 252.411 2007.37 249.862 2014.14 C 250.701 2019.07 256.453 2020.21 260.733 2019.71 C 264.812 2016.87 265.058 2015.12 265.735 2010.36 L 266.433 2010.06 C 268.856 2019.4 266.712 2015.29 273.055 2021.53 L 272.083 2022.23 L 268.78 2021.33 L 268.033 2022.46 C 269.552 2025.76 268.561 2024.22 272.1 2026.71 C 285.901 2027.95 280.36 2013.41 283.249 2007.86 L 285.303 2010.04 C 284.956 2019.38 286.648 2016.45 291.445 2022.39 C 288.251 2020.97 287.033 2020.06 283.407 2020.57 C 281.909 2022.9 282.138 2023.7 281.826 2026.66 C 281.68 2026.52 326.59 2044.25 330.653 2044.67 C 348.385 2046.53 521.387 2042.18 527.6 2046.61 C 525.463 2047.74 525.539 2047.65 523.126 2048 L 127.607 2048 C 130.352 2047.18 131.104 2047.24 133.968 2047.49 L 135.475 2046.14 C 129.922 2044.37 119.837 2044.53 113.241 2043.83 C 92.3867 2041.44 71.4571 2039.77 50.4886 2038.81 C 36.2997 2038.16 17.8448 2038.21 4.20577 2036.65 L 4.1993 2036.21 C 2.81896 2034.75 2.88755 2035.35 0 2034.89 L 0 1964.3 z M 82.825 2019.42 C 84.7223 2017.45 84.5699 2017.58 84.9633 2014.84 C 82.8026 2010.01 78.9227 2009.09 74.2169 2008.03 L 72.789 2007.73 C 72.0178 2009.67 71.3998 2011.03 70.2099 2012.75 C 70.2679 2016.08 69.9488 2016.59 71.8394 2019.32 C 75.6106 2021.19 78.8034 2020.54 82.825 2019.42 z M 250.363 2019.63 C 246.857 2017.35 245.007 2017.24 244.077 2012.91 C 243.042 2008.1 245.622 2003.83 240.436 2001.46 C 239.963 2006.49 238.679 2013.45 240.329 2017.88 C 243.764 2021.03 245.811 2020.14 250.363 2019.63 z M 97.4135 2018.82 L 97.4544 2017.04 C 92.6285 2017.73 93.2686 2018.45 89.9195 2016.56 L 89.4283 2015.14 C 94.4834 2014.3 98.1676 2015.2 100.2 2012.5 L 99.9985 2009.91 C 98.5105 2009.53 99.097 2009.43 98.2237 2009.71 C 91.6224 2014.11 90.0937 2008.55 86.7403 2013.29 C 88.0118 2019.41 90.5236 2020.41 96.3792 2019.66 L 97.4135 2018.82 z M 157.505 2020.6 C 158.166 2014.66 159.404 2011.37 155.839 2006.85 C 153.303 2006.23 154.259 2006.17 151.827 2006.63 L 151.445 2007.71 L 154.89 2008.75 C 157.589 2013.89 154.866 2016.39 157.505 2020.6 z"/>
<path transform="translate(0,0)" fill="rgb(210,208,208)" fill-opacity="0.964706" d="M 72.789 2007.73 L 74.2169 2008.03 C 78.9227 2009.09 82.8026 2010.01 84.9633 2014.84 C 84.5699 2017.58 84.7223 2017.45 82.825 2019.42 C 78.8034 2020.54 75.6106 2021.19 71.8394 2019.32 C 69.9488 2016.59 70.2679 2016.08 70.2099 2012.75 C 71.3998 2011.03 72.0178 2009.67 72.789 2007.73 z"/>
<path transform="translate(0,0)" fill="url(#Gradient2)" d="M 240.436 2001.46 C 245.622 2003.83 243.042 2008.1 244.077 2012.91 C 245.007 2017.24 246.857 2017.35 250.363 2019.63 C 245.811 2020.14 243.764 2021.03 240.329 2017.88 C 238.679 2013.45 239.963 2006.49 240.436 2001.46 z"/>
<path transform="translate(0,0)" fill="rgb(255,255,255)" fill-opacity="0.976471" d="M 98.2237 2009.71 C 99.097 2009.43 98.5105 2009.53 99.9985 2009.91 L 100.2 2012.5 C 98.1676 2015.2 94.4834 2014.3 89.4283 2015.14 L 89.9195 2016.56 C 93.2686 2018.45 92.6285 2017.73 97.4544 2017.04 L 97.4135 2018.82 L 96.3792 2019.66 C 90.5236 2020.41 88.0118 2019.41 86.7403 2013.29 C 90.0937 2008.55 91.6224 2014.11 98.2237 2009.71 z"/>
<path transform="translate(0,0)" fill="rgb(255,255,255)" fill-opacity="0.968627" d="M 151.827 2006.63 C 154.259 2006.17 153.303 2006.23 155.839 2006.85 C 159.404 2011.37 158.166 2014.66 157.505 2020.6 C 154.866 2016.39 157.589 2013.89 154.89 2008.75 L 151.445 2007.71 L 151.827 2006.63 z"/>
<path transform="translate(0,0)" fill="url(#Gradient1)" d="M 0 2034.89 C 2.88755 2035.35 2.81896 2034.75 4.1993 2036.21 L 4.20577 2036.65 C 17.8448 2038.21 36.2997 2038.16 50.4886 2038.81 C 71.4571 2039.77 92.3867 2041.44 113.241 2043.83 C 119.837 2044.53 129.922 2044.37 135.475 2046.14 L 133.968 2047.49 C 131.104 2047.24 130.352 2047.18 127.607 2048 L 0 2048 L 0 2034.89 z"/>
<path transform="translate(0,0)" fill="rgb(225,224,225)" fill-opacity="0.976471" d="M 36.6123 2003.82 C 39.2565 2007.1 37.678 2006.12 41.1036 2007.51 C 46.0345 2005.46 44.0428 2001.99 48.5499 2000.65 C 51.1052 2002.5 50.643 2001.68 51.2866 2005.85 L 51.4392 2006.9 L 52.5254 2008 C 55.898 2007.04 57.256 2006.34 60.581 2006.89 C 57.4452 2008.44 57.011 2008.39 54.7479 2011.13 C 54.0114 2016.5 58.0432 2017.83 62.1692 2019.89 C 58.2224 2020.13 53.7501 2019.54 49.8715 2018.72 C 47.6748 2016.5 47.6143 2015.02 46.8289 2011.98 L 46.537 2010.81 L 45.6825 2010.77 C 44.3746 2014.57 43.8122 2017.04 41.5352 2020.29 C 39.0063 2019.05 37.8885 2016.05 36.1518 2013.18 L 34.6745 2014.49 C 34.5735 2017.67 34.9118 2017.84 33.0612 2020.28 L 32.0021 2019.53 C 31.4156 2013.97 29.8455 2007.41 33.1278 2003.12 L 36.6123 2003.82 z"/>
<path transform="translate(0,0)" fill="rgb(210,208,208)" fill-opacity="0.984314" d="M 119.686 2005.17 C 122.711 2006.92 121.911 2005.67 122.83 2008.51 L 123.974 2009.27 C 125.458 2006.97 124.981 2007.96 125.151 2004.92 C 127.935 2004.81 127.26 2004.83 130.035 2005.37 L 130.422 2004.47 L 129.406 2002.14 C 131.044 2000.11 130.056 2000.85 132.638 2000.22 L 134.09 2001.16 C 134.17 2004.39 134.585 2002.85 132.163 2005.73 C 129.95 2008.21 129.97 2008.62 130.013 2012.81 C 129.778 2015.41 129.589 2016.81 129.089 2019.37 L 126.752 2016.5 C 125.491 2017.8 124.733 2018.72 123.576 2020.11 L 122.065 2019.51 L 119.892 2008.96 L 119.045 2007.99 L 119.686 2005.17 z"/>
<path transform="translate(0,0)" fill="rgb(210,208,208)" fill-opacity="0.984314" d="M 146 1999.69 L 147.89 2001.45 L 146.045 2001.93 C 145.939 2007.19 145.193 2015.64 147.316 2020.16 C 142.819 2018.89 143.415 2020.35 138.367 2019.34 L 137.54 2017.8 C 138.178 2015.69 138.831 2013.59 139.498 2011.5 C 137.596 2010.25 138.224 2011.03 137.385 2009.34 C 138.562 2008.45 139.686 2007.53 140.964 2006.78 C 139.508 2005.43 138.022 2004.12 136.507 2002.84 C 138.392 2001.11 137.312 2001.57 139.679 2001.3 C 141.509 2003.86 140.975 2003.52 143.311 2005.43 C 145.502 2003.28 145.004 2003.03 146 1999.69 z"/>
<path transform="translate(0,0)" fill="rgb(210,208,208)" fill-opacity="0.972549" d="M 60.581 2006.89 C 64.2465 2009.73 65.785 2010.4 67.6422 2014.44 C 67.2935 2017.93 67.9443 2016.4 65.4003 2019.08 L 62.1692 2019.89 C 58.0432 2017.83 54.0114 2016.5 54.7479 2011.13 C 57.011 2008.39 57.4452 2008.44 60.581 2006.89 z"/>
<path transform="translate(0,0)" fill="rgb(225,224,225)" fill-opacity="0.839216" d="M 132.163 2005.73 L 135.742 2005.36 C 132.537 2010.92 134.625 2014.22 132.471 2019.83 C 130.366 2018.5 130.327 2015.23 130.013 2012.81 C 129.97 2008.62 129.95 2008.21 132.163 2005.73 z"/>
<path transform="translate(0,0)" fill="rgb(255,255,255)" d="M 146.045 2001.93 C 149.837 2008.58 148.358 2012.38 147.316 2020.16 C 145.193 2015.64 145.939 2007.19 146.045 2001.93 z"/>
</svg>